Coordinates
version=1
nRows=6
nColumns=63
inDegrees=yes

Units are S.I. units (second, meters, Newtons, ...)
If the header above contains a line with 'inDegrees', this indicates whether rotational values are in degrees (yes) or radians (no).

endheader
time	pelvis_tilt	pelvis_list	pelvis_rotation	pelvis_tx	pelvis_ty	pelvis_tz	hip_flexion_r	hip_adduction_r	hip_rotation_r	knee_angle_r	knee_angle_r_beta	ankle_angle_r	subtalar_angle_r	mtp_angle_r	hip_flexion_l	hip_adduction_l	hip_rotation_l	knee_angle_l	knee_angle_l_beta	ankle_angle_l	subtalar_angle_l	mtp_angle_l	L5_S1_Flex_Ext	L5_S1_Lat_Bending	L5_S1_axial_rotation	L4_L5_Flex_Ext	L4_L5_Lat_Bending	L4_L5_axial_rotation	L3_L4_Flex_Ext	L3_L4_Lat_Bending	L3_L4_axial_rotation	L2_L3_Flex_Ext	L2_L3_Lat_Bending	L2_L3_axial_rotation	L1_L2_Flex_Ext	L1_L2_Lat_Bending	L1_L2_axial_rotation	L1_T12_Flex_Ext	L1_T12_Lat_Bending	L1_T12_axial_rotation	Abs_r3	Abs_r2	Abs_r1	Abs_t1	Abs_t2	neck_flexion	neck_bending	neck_rotation	arm_flex_r	arm_add_r	arm_rot_r	elbow_flex_r	pro_sup_r	wrist_flex_r	wrist_dev_r	arm_flex_l	arm_add_l	arm_rot_l	elbow_flex_l	pro_sup_l	wrist_flex_l	wrist_dev_l
2.683333	-5.644365	-7.581904	81.671675	0.102498	1.066457	0.285259	9.985910	-5.497768	-12.597817	18.366687	0.320559	42.402391	17.429234	0.000000	8.515653	5.048234	-3.244977	14.721219	0.256934	35.071225	-1.725049	0.000000	-0.205831	-0.160206	1.073648	-0.382248	-0.213074	1.140750	-0.338159	-0.389526	1.140750	-0.235244	-0.389526	0.939442	-0.191134	-0.326693	0.872339	-0.117612	-0.248160	0.805236	-1.470227	-1.812286	5.971305	0.000000	0.000000	23.709195	5.781342	14.158352	5.665127	-14.701916	109.736049	11.474741	6.035017	-3.760722	-18.561762	6.034235	-18.286256	109.811938	18.852627	8.932335	-2.600418	-9.873072
2.700000	-5.662269	-7.575591	81.557214	0.102862	1.066295	0.285546	10.030148	-5.490662	-12.535576	18.434995	0.321751	42.409608	17.437032	0.000000	8.529226	5.018229	-3.352578	14.786052	0.258065	35.132783	-1.620617	0.000000	-0.200332	-0.166249	1.109898	-0.372036	-0.221112	1.179266	-0.329125	-0.404218	1.179266	-0.228959	-0.404218	0.971161	-0.186028	-0.339016	0.901792	-0.114470	-0.257520	0.832423	-1.430951	-1.880645	6.172919	0.000000	0.000000	23.630707	6.055969	14.221888	5.594166	-14.684502	109.448259	11.533178	6.056154	-3.752014	-18.424136	6.194976	-18.232009	110.421837	18.794149	8.805055	-2.678879	-9.809644
2.716667	-5.696959	-7.567687	81.439889	0.103251	1.066110	0.285906	10.078316	-5.498533	-12.424527	18.499305	0.322874	42.468938	17.473675	0.000000	8.563155	4.989063	-3.585681	14.867107	0.259480	35.300114	-1.340433	0.000000	-0.197309	-0.174755	1.152550	-0.366423	-0.232424	1.224584	-0.324159	-0.424898	1.224584	-0.225505	-0.424898	1.008481	-0.183221	-0.356360	0.936447	-0.112742	-0.270695	0.864413	-1.409360	-1.976859	6.410138	0.000000	0.000000	23.581559	6.282631	14.189356	5.516342	-14.655581	109.051322	11.585162	6.143852	-3.756867	-18.290918	6.408696	-18.190900	110.985755	18.762745	9.000083	-2.853950	-9.748450
2.733333	-5.730593	-7.556005	81.330033	0.103611	1.065932	0.286313	10.121405	-5.505101	-12.262839	18.553307	0.323816	42.569335	17.527503	0.000000	8.607693	4.952558	-3.896689	14.952241	0.260966	35.558503	-0.932615	0.000000	-0.197243	-0.182414	1.195725	-0.366300	-0.242611	1.270458	-0.324051	-0.443522	1.270458	-0.225429	-0.443522	1.046259	-0.183160	-0.371979	0.971526	-0.112705	-0.282560	0.896794	-1.408889	-2.063507	6.650263	0.000000	0.000000	23.549418	6.419231	14.095698	5.462579	-14.617035	108.835915	11.602132	6.127290	-3.763204	-18.154555	6.650618	-18.135729	111.503915	18.728075	9.205220	-3.007181	-9.649582
2.750000	-5.772037	-7.541912	81.230085	0.103938	1.065755	0.286738	10.160357	-5.521463	-12.059076	18.593633	0.324520	42.713065	17.600620	0.000000	8.660745	4.925388	-4.228602	15.033430	0.262383	35.869456	-0.479409	0.000000	-0.199749	-0.190502	1.239085	-0.370953	-0.253368	1.316528	-0.328167	-0.463188	1.316528	-0.228293	-0.463188	1.084199	-0.185486	-0.388473	1.006756	-0.114136	-0.295088	0.929314	-1.426784	-2.155002	6.891418	0.000000	0.000000	23.540170	6.466139	13.904918	5.420542	-14.569094	108.658827	11.591629	6.109377	-3.755770	-18.027533	6.903826	-18.088276	111.920538	18.713903	9.582169	-3.206162	-9.624805
2.766667	-5.804998	-7.521194	81.138508	0.104216	1.065602	0.287181	10.194429	-5.531848	-11.817823	18.631388	0.325179	42.878846	17.676008	0.000000	8.715220	4.888428	-4.620216	15.112963	0.263771	36.224546	0.055577	0.000000	-0.205607	-0.196566	1.280722	-0.381834	-0.261433	1.360768	-0.337793	-0.477930	1.360768	-0.234989	-0.477930	1.120632	-0.190927	-0.400837	1.040587	-0.117484	-0.304480	0.960542	-1.468634	-2.223592	7.122994	0.000000	0.000000	23.538338	6.429566	13.678609	5.405829	-14.528476	108.560771	11.576611	6.056729	-3.780474	-17.890093	7.170864	-18.022130	112.261251	18.690390	9.902127	-3.345472	-9.493150
